<svg id="icon2" xmlns="http://www.w3.org/2000/svg" xmlns:xlink="http://www.w3.org/1999/xlink" width="90" height="59.291" viewBox="0 0 90 59.291">
  <defs>
    <clipPath id="clip-path">
      <path id="Clip_2" data-name="Clip 2" d="M0,0H90V59.291H0Z" fill="none"/>
    </clipPath>
  </defs>
  <path id="Clip_2-2" data-name="Clip 2" d="M0,0H90V59.291H0Z" fill="none"/>
  <g id="Group_3" data-name="Group 3" clip-path="url(#clip-path)">
    <path id="Fill_1" data-name="Fill 1" d="M42.218,59.291a10.592,10.592,0,0,1-8.537-4.1,5.668,5.668,0,0,1-1.147.12,5.574,5.574,0,0,1-5.574-5.332,5.585,5.585,0,0,1-7.067-5.386c0-.008,0-.016,0-.024s0-.016,0-.025a5.588,5.588,0,0,1-5.013-9.437l.088-.088L.464,22.994a1.29,1.29,0,0,1-.23-1.725l13.6-19.336a1.283,1.283,0,0,1,1.05-.545,1.267,1.267,0,0,1,.569.134,21.292,21.292,0,0,0,6.659,1.873c.1.008.2.013.31.013a15.082,15.082,0,0,0,4.757-1.326l.007,0A24.481,24.481,0,0,1,35.947,0c.4,0,.8.017,1.194.05A17.46,17.46,0,0,1,45.852,3.27,17.472,17.472,0,0,1,54.839.8c3.82,0,7.109,1.587,9.752,2.863,1.928.933,3.593,1.738,4.94,1.738a21.1,21.1,0,0,0,6.791-1.3,1.281,1.281,0,0,1,1.582.544L89.825,25.053a1.285,1.285,0,0,1-.375,1.7L75.206,36.659,77.5,38.952a5.589,5.589,0,0,1-5.673,9.269,5.577,5.577,0,0,1-8.4,4.387A5.587,5.587,0,0,1,55.76,56.8a8.588,8.588,0,0,1-5.769,2.061,9.683,9.683,0,0,1-3-.481A12.947,12.947,0,0,1,42.218,59.291ZM42.5,47.636l-.046.052c-.062.071-.126.145-.2.213l-5.77,5.772c-.131.131-.27.257-.411.374a7.892,7.892,0,0,0,6.085,2.683,10.262,10.262,0,0,0,1.786-.161,4.036,4.036,0,0,1-1.25-1.847,4.205,4.205,0,0,1,.744-3.374C44.145,50.1,44.612,49.282,42.5,47.636ZM38.3,38.362a5.588,5.588,0,0,1,5.59,5.588,5.616,5.616,0,0,1-.183,1.4c3.941,2.948,3.077,5.3,1.958,7.266-.378.667-.6,1.092-.517,1.382.068.224.427.85,2.3,1.832a6.938,6.938,0,0,0,2.537.466,6.44,6.44,0,0,0,3.631-1.049l-4.782-4.781a1.282,1.282,0,1,1,1.813-1.813l5.133,5.13a3.024,3.024,0,0,0,4.279-4.275l-7.974-7.974A1.282,1.282,0,0,1,53.9,39.72l7.97,7.969,0,.006,2.242,2.242A3.025,3.025,0,0,0,68.4,45.659a.014.014,0,0,0-.006-.006L56.218,33.479a1.282,1.282,0,1,1,1.813-1.813L71.407,45.044a3.025,3.025,0,0,0,4.278-4.278l-3.373-3.375L51.989,17.068c-1.944.5-3.927,2.909-5.844,5.242-2.59,3.152-5.267,6.412-8.788,6.412a5.885,5.885,0,0,1-2.235-.453,3.513,3.513,0,0,1-2.052-2.263c-1.464-4.562,4.129-13.653,4.772-14.675a26.241,26.241,0,0,1,5.736-6.5A14.868,14.868,0,0,0,36.926,2.6c-.321-.027-.65-.041-.979-.041A22.135,22.135,0,0,0,28.1,4.474a16.9,16.9,0,0,1-5.684,1.5c-.176,0-.352-.007-.52-.022a23.106,23.106,0,0,1-6.571-1.68L3.013,21.774l13.622,11.3a1.074,1.074,0,0,1,.12.12l.017.019.67-.669a5.588,5.588,0,0,1,9.414,2.769l.439-.439a5.582,5.582,0,0,1,9.529,3.692A5.588,5.588,0,0,1,38.3,38.362Zm0,2.563a3.005,3.005,0,0,0-2.139.886l-.953.953-.009.01-4.812,4.813a3.024,3.024,0,0,0,4.281,4.272l5.771-5.771A3.025,3.025,0,0,0,38.3,40.926ZM31.252,35.8a3.008,3.008,0,0,0-2.138.887l-5.771,5.77a3.025,3.025,0,1,0,4.278,4.278l.95-.949,0-.006.006-.008,4.813-4.812a3.025,3.025,0,0,0-2.143-5.16ZM21.4,33.468a3.009,3.009,0,0,0-2.139.886L16.7,36.919A3.025,3.025,0,1,0,20.973,41.2l2.564-2.564A3.025,3.025,0,0,0,21.4,33.468ZM52.436,14.42a1.284,1.284,0,0,1,.905.376L66.059,27.514l7.3,7.3,13.651-9.493L76.223,6.844a23.144,23.144,0,0,1-6.691,1.12c-1.925,0-3.921-.963-6.035-1.983l-.017-.008c-2.533-1.223-5.4-2.61-8.641-2.61-7.785,0-12.633,5.85-14.829,9.338-2.736,4.343-5.242,10.208-4.5,12.523a.947.947,0,0,0,.579.671,3.308,3.308,0,0,0,1.266.264c2.308,0,4.593-2.782,6.8-5.473l.005-.007c2.441-2.971,4.966-6.043,8.187-6.257C52.374,14.421,52.4,14.42,52.436,14.42Z" transform="translate(0 0)" fill="#002a4f"/>
  </g>
</svg>
