<svg id="in" xmlns="http://www.w3.org/2000/svg" xmlns:xlink="http://www.w3.org/1999/xlink" width="16" height="16" viewBox="0 0 16 16">
  <defs>
    <clipPath id="clip-path">
      <path id="Clip_2" data-name="Clip 2" d="M0,0H16V16H0Z" fill="none"/>
    </clipPath>
  </defs>
  <path id="Clip_2-2" data-name="Clip 2" d="M0,0H16V16H0Z" fill="none"/>
  <g id="Group_3" data-name="Group 3" clip-path="url(#clip-path)">
    <path id="Fill_1" data-name="Fill 1" d="M12.986,16H3.013A3.017,3.017,0,0,1,0,12.987V3.013A3.017,3.017,0,0,1,3.013,0h9.973A3.017,3.017,0,0,1,16,3.013v9.974A3.017,3.017,0,0,1,12.986,16ZM9.773,8.075h.009a1.107,1.107,0,0,1,.427.079.928.928,0,0,1,.522.571,2.144,2.144,0,0,1,.122.764q0,1.239,0,2.479V12.8h2.005q0-1.951,0-3.9a4.678,4.678,0,0,0-.027-.541,2.99,2.99,0,0,0-.189-.771,2.02,2.02,0,0,0-.948-1.069,2.525,2.525,0,0,0-1.122-.269h-.067a2.544,2.544,0,0,0-.435.038,2.249,2.249,0,0,0-1.243.663A2.039,2.039,0,0,0,8.55,7.3V6.241H6.62V12.8H8.55v-.906q0-.907,0-1.813c0-.059,0-.117,0-.176,0-.172,0-.35.007-.526a1.884,1.884,0,0,1,.1-.553,1.057,1.057,0,0,1,.51-.615A1.281,1.281,0,0,1,9.773,8.075ZM3.332,6.241V12.8H5.346V6.241Zm1-3.036A1.182,1.182,0,0,0,3.14,4.4a1.19,1.19,0,1,0,2.381,0,1.181,1.181,0,0,0-1.188-1.2Z" fill="#149b9e"/>
  </g>
</svg>
