<svg id="instagram" xmlns="http://www.w3.org/2000/svg" xmlns:xlink="http://www.w3.org/1999/xlink" width="15.937" height="15.937" viewBox="0 0 15.937 15.937">
  <defs>
    <clipPath id="clip-path">
      <path id="Clip_2" data-name="Clip 2" d="M0,0H15.937V15.937H0Z" fill="none"/>
    </clipPath>
  </defs>
  <g id="Group_3" data-name="Group 3">
    <path id="Clip_2-2" data-name="Clip 2" d="M0,0H15.937V15.937H0Z" fill="none"/>
    <g id="Group_3-2" data-name="Group 3" clip-path="url(#clip-path)">
      <path id="Fill_1" data-name="Fill 1" d="M11.487,15.937H4.45A4.456,4.456,0,0,1,0,11.486V4.45A4.455,4.455,0,0,1,4.45,0h7.037a4.455,4.455,0,0,1,4.451,4.45v7.036A4.456,4.456,0,0,1,11.487,15.937ZM4.45,1.29A3.163,3.163,0,0,0,1.29,4.45v7.036a3.163,3.163,0,0,0,3.16,3.16h7.037a3.163,3.163,0,0,0,3.159-3.16V4.45a3.163,3.163,0,0,0-3.159-3.16Z" fill="#149b9e"/>
    </g>
  </g>
  <path id="Fill_4" data-name="Fill 4" d="M4.193,8.386A4.193,4.193,0,1,1,8.386,4.193,4.2,4.2,0,0,1,4.193,8.386Zm0-7.1a2.9,2.9,0,1,0,2.9,2.9A2.907,2.907,0,0,0,4.193,1.29Z" transform="translate(3.775 3.775)" fill="#149b9e"/>
  <path id="Fill_6" data-name="Fill 6" d="M.653,1.3A.653.653,0,1,1,1.306.652.654.654,0,0,1,.653,1.3" transform="translate(11.685 2.948)" fill="#149b9e"/>
</svg>
