<svg id="next" xmlns="http://www.w3.org/2000/svg" xmlns:xlink="http://www.w3.org/1999/xlink" width="44" height="83" viewBox="0 0 44 83">
  <defs>
    <clipPath id="clip-path">
      <path id="Clip_2" data-name="Clip 2" d="M0,0H44V83H0Z" fill="none"/>
    </clipPath>
  </defs>
  <path id="Clip_2-2" data-name="Clip 2" d="M0,0H44V83H0Z" fill="none"/>
  <g id="Group_3" data-name="Group 3" clip-path="url(#clip-path)">
    <path id="Fill_1" data-name="Fill 1" d="M.746,82.3a2.362,2.362,0,0,0,1.664.7,2.284,2.284,0,0,0,1.664-.7L43.3,43.186a2.326,2.326,0,0,0,.022-3.3l-.022-.022L4.073.744A2.351,2.351,0,0,0,.635,3.951c.036.038.072.075.111.11L38.313,41.528.746,78.985a2.334,2.334,0,0,0-.01,3.308l.01.01"/>
  </g>
</svg>
