<svg id="footer-logo" xmlns="http://www.w3.org/2000/svg" width="314" height="79" viewBox="0 0 314 79">
  <g id="Group" transform="translate(78 21)">
    <path id="Path" d="M6.521,0V19.875A8.693,8.693,0,0,0,9.029,26a8.535,8.535,0,0,0,6.145,2.5,8.551,8.551,0,0,0,8.652-8.625V0h6.521V19.875a15.789,15.789,0,0,1-1.129,5.875,17.486,17.486,0,0,1-3.26,4.875,14.548,14.548,0,0,1-4.891,3.25A15.928,15.928,0,0,1,15.173,35a15.457,15.457,0,0,1-5.894-1.125,17.55,17.55,0,0,1-4.891-3.25,14.5,14.5,0,0,1-3.26-4.875A15.789,15.789,0,0,1,0,19.875V0Z" transform="translate(81.384 1)" fill="#fff"/>
    <path id="Shape" d="M10.785,33.875a22.152,22.152,0,0,1-5.643-3.75A17.048,17.048,0,0,1,1.38,24.5,18.668,18.668,0,0,1,0,17.625,18.668,18.668,0,0,1,1.38,10.75a17.26,17.26,0,0,1,9.405-9.374A17.706,17.706,0,0,1,17.555,0a18.349,18.349,0,0,1,6.9,1.375,17.26,17.26,0,0,1,9.405,9.374,18.685,18.685,0,0,1,1.379,6.875A18.685,18.685,0,0,1,33.858,24.5,18.472,18.472,0,0,1,30.1,30.125a17.132,17.132,0,0,1-5.643,3.75,18.349,18.349,0,0,1-6.9,1.375A17.706,17.706,0,0,1,10.785,33.875Z" transform="translate(118.878 0.75)" fill="#fff"/>
    <path id="Path-2" data-name="Path" d="M20.315,26.8a2.737,2.737,0,0,0,.878-2.125c0-.25,0-.75-1.379-1.5a26.478,26.478,0,0,0-5.643-2.25c-.878-.25-1.63-.625-2.508-.875A27.614,27.614,0,0,1,5.141,17.3a10.341,10.341,0,0,1-3.01-2.625A7.467,7.467,0,0,1,.752,10.42a8.947,8.947,0,0,1,2.633-6.5A12.926,12.926,0,0,1,9.154.67C15.3-1.08,23.826.545,27.211,6.17L21.569,9.545A7.166,7.166,0,0,0,17.3,6.92a14.358,14.358,0,0,0-6.521,0A6.919,6.919,0,0,0,7.9,8.42,2.751,2.751,0,0,0,7.148,10.3c0,.125,0,.625,1.129,1.375A33.543,33.543,0,0,0,13.418,13.8h.125c.752.25,1.63.625,2.383.875a30.8,30.8,0,0,1,6.9,2.875,9.459,9.459,0,0,1,3.135,2.625,7.119,7.119,0,0,1,1.5,4.375A9.351,9.351,0,0,1,24.7,31.17a14.323,14.323,0,0,1-5.894,3.375,17.876,17.876,0,0,1-5.267.75,22.041,22.041,0,0,1-5.016-.625,18.194,18.194,0,0,1-4.765-2A10.783,10.783,0,0,1,0,28.92l5.643-3.375a7.672,7.672,0,0,0,4.514,2.875,16.04,16.04,0,0,0,6.9,0A6.647,6.647,0,0,0,20.315,26.8Z" transform="translate(159.758 0.455)" fill="#fff"/>
    <path id="Path-3" data-name="Path" d="M6.4,35.25H0V0H6.4Z" transform="translate(194.869 0.75)" fill="#fff"/>
    <path id="Path-4" data-name="Path" d="M20.315,26.8a2.737,2.737,0,0,0,.878-2.125c0-.25,0-.75-1.379-1.5a26.478,26.478,0,0,0-5.643-2.25c-.878-.25-1.63-.625-2.508-.875A27.614,27.614,0,0,1,5.141,17.3a10.341,10.341,0,0,1-3.01-2.625A7.467,7.467,0,0,1,.752,10.42a8.947,8.947,0,0,1,2.633-6.5A12.926,12.926,0,0,1,9.154.67C15.3-1.08,23.826.545,27.211,6.17L21.569,9.545A7.166,7.166,0,0,0,17.3,6.92a14.358,14.358,0,0,0-6.521,0A6.919,6.919,0,0,0,7.9,8.42,2.751,2.751,0,0,0,7.148,10.3c0,.125,0,.625,1.129,1.375A33.543,33.543,0,0,0,13.418,13.8h.125c.752.25,1.63.625,2.383.875a30.8,30.8,0,0,1,6.9,2.875,9.459,9.459,0,0,1,3.135,2.625,7.119,7.119,0,0,1,1.5,4.375A9.351,9.351,0,0,1,24.7,31.17a14.323,14.323,0,0,1-5.894,3.375,17.876,17.876,0,0,1-5.267.75,22.041,22.041,0,0,1-5.016-.625,18.194,18.194,0,0,1-4.765-2A10.783,10.783,0,0,1,0,28.92l5.643-3.375a7.672,7.672,0,0,0,4.514,2.875,16.04,16.04,0,0,0,6.9,0A6.647,6.647,0,0,0,20.315,26.8Z" transform="translate(208.538 0.455)" fill="#fff"/>
    <path id="Path-5" data-name="Path" d="M34.735,36,20.691,6.875,20.565,6.5,17.43,0,14.3,6.5l-.376.75L0,36H6.646l1.379-2.75h0l4.264-8.875h0L17.3,14l4.138,8.5h0l.878,1.875h0l3.887,7.75h0L28.089,36Z" fill="#fff"/>
    <path id="Shape-2" data-name="Shape" d="M26.208,35.25l-1.129-1.625a2.117,2.117,0,0,0-.626.25,18.349,18.349,0,0,1-6.9,1.375,17.706,17.706,0,0,1-6.771-1.375,17.114,17.114,0,0,1-5.643-3.75A18.439,18.439,0,0,1,1.38,24.5,18.668,18.668,0,0,1,0,17.625,18.668,18.668,0,0,1,1.38,10.75a17.26,17.26,0,0,1,9.405-9.374A17.706,17.706,0,0,1,17.555,0a18.349,18.349,0,0,1,6.9,1.375,17.26,17.26,0,0,1,9.405,9.374,18.685,18.685,0,0,1,1.379,6.875A18.685,18.685,0,0,1,33.858,24.5a16.56,16.56,0,0,1-3.386,5.126l3.762,5.625Z" transform="translate(38.372 0.625)" fill="#fff"/>
  </g>
  <g id="Group-2" data-name="Group" transform="translate(3)">
    <path id="Path-6" data-name="Path" d="M5.085,39.028,7.814,33.98,12.155,26.1,21.829,8.618l9.55,17.359,4.341,7.756,8.31,15.143h.124A30.5,30.5,0,0,0,48,47.4L38.326,29.794,21.953,0,5.457,30.04,0,39.889a23.265,23.265,0,0,1,3.349-.616A5.789,5.789,0,0,1,5.085,39.028Z" fill="#fff"/>
    <path id="Path-7" data-name="Path" d="M30.016,32.256l-.868-1.6L24.682,22.53l-4.961-8.987-3.1-5.663L12.279,0,7.938,7.879l-3.1,5.663L0,22.284H.248a23.84,23.84,0,0,1,4.093.739L7.07,18.1l3.225-5.786,1.984-3.693,1.984,3.693L17.488,18.1l5.085,9.234,1.364,2.462L25.3,32.256h4.713Z" transform="translate(9.55 16.744)" fill="#fff"/>
  </g>
  <g id="Group-3" data-name="Group" transform="translate(0 44)">
    <path id="Path-8" data-name="Path" d="M34.419,27.875c-2.868,1.25-6.609,1.25-9.727,1.25-12.471,0-19.828-8.75-19.953-21.75a16.979,16.979,0,0,1,.249-2.5A30.683,30.683,0,0,1,5.986,0,16.508,16.508,0,0,0,2.993.5a10.6,10.6,0,0,0-2.12.75,10.393,10.393,0,0,0-.624,2.5c0,.125-.125,1.625-.125,1.625C.125,6.125,0,6.5,0,7.25,0,22.375,9.353,34,25.565,34.125a29.263,29.263,0,0,0,8.6-1.25h.125l1,1.5h5.487L36.165,27Z" transform="translate(0 0.625)" fill="#fff"/>
    <path id="Path-9" data-name="Path" d="M5.736,16.625l.125-.125A27.4,27.4,0,0,0,11.972,0,21.057,21.057,0,0,1,7.482,1.5,23.531,23.531,0,0,1,1.372,15.125L0,16.5l6.235,10h5.986Z" transform="translate(40.779 8.5)" fill="#fff"/>
    <path id="Path-10" data-name="Path" d="M5.955.5A14.283,14.283,0,0,0,2.089,0h-.5A17.491,17.491,0,0,0,.468,3.625,9.537,9.537,0,0,0,.094,6.25a18.841,18.841,0,0,0,0,3.75A15.874,15.874,0,0,0,16.056,24.875a19.134,19.134,0,0,0,4.988-.5l2.993-.875L17.054,12.75H11.691l4.988,7.625h-.5C9.446,20.125,4.209,13.875,4.583,8A21.412,21.412,0,0,1,6.2.625.435.435,0,0,1,5.955.5Z" transform="translate(9.135)" fill="#fff"/>
    <path id="Path-11" data-name="Path" d="M9.1,6.125A13.337,13.337,0,0,0,11.348,0c-.125,0-2,.25-2.619.25H5.986a8.271,8.271,0,0,1-.624,1.875l-.125.125H0l5.113,7.875,1-.75a6.542,6.542,0,0,0,1.372-1.25A11.416,11.416,0,0,0,9.1,6.125Z" transform="translate(32.548 10.5)" fill="#fff"/>
  </g>
  <g id="Group-4" data-name="Group" transform="translate(78 69)">
    <g id="Group-5" data-name="Group">
      <path id="Shape-3" data-name="Shape" d="M0,9.879V0H4.748C6.873,0,8.123.964,8.123,2.53A2.478,2.478,0,0,1,6.748,4.7c1.125.481,1.875,1.084,1.875,2.409.125,1.807-1.374,2.771-3.749,2.771Z" fill="#fff"/>
      <path id="Path-12" data-name="Path" d="M6.123,5.9V9.88H3.874V6.024L0,0H2.624l2.5,3.976L7.623,0h2.5Z" transform="translate(9.123)" fill="#fff"/>
    </g>
    <g id="Group_155_00000023269314129466070250000001909240544343973008_" transform="translate(20.745)">
      <rect id="Rectangle_4_00000176036225043407524620000009677996039388706216_" width="0.875" height="9.518" transform="translate(76.231 0.361)" fill="#fff"/>
      <path id="Path_28_00000164485127378525604150000001078762709076846745_" d="M0,0V7.831H.875V.843h3V0Z" transform="translate(44.739 2.048)" fill="#fff"/>
      <path id="Path_29_00000067225470869074677740000003129622643450897557_" d="M0,0V.843H3V7.831h.875V0Z" transform="translate(39.99 2.048)" fill="#fff"/>
      <rect id="Rectangle_5_00000117673868527228584670000005355965332336244152_" width="8.623" height="0.843" transform="translate(39.99 0.361)" fill="#fff"/>
      <path id="Path_30_00000006667250428865128250000001811330432604900263_" d="M0,0V9.518H6.873V8.675h-6V.843h6V0H0Z" transform="translate(49.988 0.361)" fill="#fff"/>
      <rect id="Rectangle_6_00000011032675122672043850000015280988530740610207_" width="0.875" height="9.518" transform="translate(68.483 0.361)" fill="#fff"/>
      <path id="Path_31_00000010299574658372445270000004344715897193268907_" d="M0,0V4.337H.875V.843H4.249V4.337h.875V0Z" transform="translate(70.233 5.542)" fill="#fff"/>
      <path id="Path_32_00000147932631538828841450000015265071983611867563_" d="M0,0V4.337H5.124V0H4.249V3.494H.875V0Z" transform="translate(70.233 0.361)" fill="#fff"/>
      <path id="Path_33_00000083785898237573765700000013753832818993382329_" d="M9.981,9.5,8.856,7.816h0a4.678,4.678,0,0,0-.75-6.747,5.1,5.1,0,0,0-7,.723,4.678,4.678,0,0,0,.75,6.747A4.91,4.91,0,0,0,4.982,9.623a7.566,7.566,0,0,0,1.625-.241h0l.125.241h1L6.857,8.3l-.375.12a3.565,3.565,0,0,1-1.625.361A4.088,4.088,0,0,1,.733,4.8,4.088,4.088,0,0,1,4.857.828,4.088,4.088,0,0,1,8.981,4.8,4.16,4.16,0,0,1,7.857,7.575l-.25.241,1.25,1.807Z" transform="translate(10.639 0.377)" fill="#fff"/>
      <path id="Path_34_00000005240888401281590740000013141289018408865178_" d="M3.124,0A3.04,3.04,0,0,0,0,3.012,3.04,3.04,0,0,0,3.124,6.024,2.2,2.2,0,0,0,4,5.9l.5-.12L3.249,3.855H2.124L3,5.181H2.874A2.3,2.3,0,0,1,.625,2.892,2.314,2.314,0,0,1,3,.723,2.2,2.2,0,0,1,5.249,2.892a1.983,1.983,0,0,1-.125.843h-.75L5.249,5.06l.375-.482A3,3,0,0,0,4.874.361,7.44,7.44,0,0,0,3.124,0" transform="translate(12.622 2.048)" fill="#fff"/>
      <path id="Path_35_00000034077145348081190330000001305593298818947244_" d="M4.374,9.518A4.351,4.351,0,0,0,8.748,5.3V0H7.873V5.3a3.431,3.431,0,0,1-3.5,3.373A3.357,3.357,0,0,1,.875,5.3h0V0H0V5.3A4.351,4.351,0,0,0,4.374,9.518" transform="translate(21.745 0.361)" fill="#fff"/>
      <path id="Path_36_00000055675957199415811330000003611036068186224782_" d="M2.5,7.711A2.463,2.463,0,0,0,5,5.3V0H4.124V5.3a1.626,1.626,0,0,1-3.249,0V0H0V5.3a2.463,2.463,0,0,0,2.5,2.41" transform="translate(23.619 0.361)" fill="#fff"/>
      <path id="Path_37_00000180354170338501056000000018165181915122565540_" d="M5.624,0,0,9.88H1L5.624,1.807,10.247,9.88h1Z" fill="#fff"/>
      <path id="Path_38_00000000210653863168092230000003570812724676914594_" d="M0,6.506H1l2.624-4.7,2.624,4.7h1L3.624,0Z" transform="translate(2 3.373)" fill="#fff"/>
      <path id="Path_39_00000088120061265814636290000015139028562051278219_" d="M5.624,0,0,9.88H1L5.624,1.807,10.247,9.88h1Z" transform="translate(30.118)" fill="#fff"/>
      <path id="Path_40_00000005257596101130994790000016905802965150887846_" d="M0,6.506H1l2.624-4.7,2.624,4.7h1L3.624,0Z" transform="translate(32.117 3.373)" fill="#fff"/>
      <path id="Path_41_00000075128922786360029640000000776943869851870396_" d="M5.8,1.5A3.146,3.146,0,0,0,1.555.415,2.915,2.915,0,0,0,.43,4.511,3.146,3.146,0,0,0,4.679,5.6,2.41,2.41,0,0,0,5.8,4.511l-.75-.482a2.28,2.28,0,0,1-3.124.723A2.11,2.11,0,0,1,1.18,1.74,2.28,2.28,0,0,1,4.3,1.017a2.083,2.083,0,0,1,.75.723Z" transform="translate(60.055 1.995)" fill="#fff"/>
      <path id="Path_42_00000165225346832178956270000008882828727686704807_" d="M9.183,2.347A5,5,0,0,0,2.435.66,4.634,4.634,0,0,0,.685,7.167,5,5,0,0,0,7.433,8.853a4.619,4.619,0,0,0,1.75-1.687l-.75-.482A4.254,4.254,0,0,1,2.81,8.01,3.932,3.932,0,0,1,1.435,2.588,4.254,4.254,0,0,1,7.059,1.263,3.55,3.55,0,0,1,8.433,2.588Z" transform="translate(58.175 0.303)" fill="#fff"/>
      <path id="Path_43_00000129202279742025745630000011233643214348559547_" d="M5,.843V0H0V2.53H5.124V1.687H.875V.843Z" transform="translate(51.862 2.048)" fill="#fff"/>
      <path id="Path_44_00000134214311986215629220000010340913060868033172_" d="M5.124.843V0H0V2.53H5V1.687H.75V.843Z" transform="translate(51.737 5.542)" fill="#fff"/>
      <path id="Path_45_00000137108394345868967840000017223508058592066952_" d="M.54,1,.36.667H.18V1H0V0H.54A.645.645,0,0,1,.9.167V.333C.9.5.72.5.36.667L.72,1Z" transform="translate(78.356 0.602)" fill="#fff"/>
      <path id="Path_46_00000019663793535659726000000002287409828949353627_" d="M0,.6A.58.58,0,0,1,.625,0h0C1,0,1.374.241,1.25.6a.581.581,0,0,1-.626.6A.58.58,0,0,1,0,.6Z" transform="translate(77.981 0.361)" fill="#fff"/>
      <path id="Path_155_00000142166599686175031540000014006140485736088232_" d="M5.624,0,0,9.88H1L5.624,1.807,10.247,9.88h1Z" fill="#fff"/>
      <path id="Path_156_00000171696094715514729610000018384152583217529255_" d="M0,6.506H1l2.624-4.7,2.624,4.7h1L3.624,0Z" transform="translate(2 3.373)" fill="#fff"/>
    </g>
  </g>
</svg>
