<svg id="icon3" xmlns="http://www.w3.org/2000/svg" xmlns:xlink="http://www.w3.org/1999/xlink" width="85" height="82" viewBox="0 0 85 82">
  <defs>
    <clipPath id="clip-path">
      <path id="Clip_2" data-name="Clip 2" d="M0,0H85V82H0Z" fill="none"/>
    </clipPath>
  </defs>
  <g id="Group_3" data-name="Group 3">
    <path id="Clip_2-2" data-name="Clip 2" d="M0,0H85V82H0Z" fill="none"/>
    <g id="Group_3-2" data-name="Group 3" clip-path="url(#clip-path)">
      <path id="Fill_1" data-name="Fill 1" d="M49.041,82l-.149,0a5.94,5.94,0,0,1-5.414-8.092L21.7,76.757a15.993,15.993,0,0,1-1.913.115,15.021,15.021,0,0,1-8.907-2.858,13.281,13.281,0,0,1-5.493-9.194L.077,20.686a10.841,10.841,0,0,1,2.557-8.332,12.387,12.387,0,0,1,8.06-4.294,10.846,10.846,0,0,1,1.261-.074A10.056,10.056,0,0,1,17.922,9.9a8.922,8.922,0,0,1,3.693,6.186l.043.36,9.187-1.215c-.015-.025-.031-.049-.047-.073s-.046-.069-.066-.106a7.116,7.116,0,0,1,1.693-9.04l-2.38-4.19A1.218,1.218,0,0,1,30.506.158a1.226,1.226,0,0,1,1.668.46l2.38,4.189a7.123,7.123,0,0,1,9.02,3.968c.02.049.039.1.058.148l.023.061c.088.232.158.443.213.644l.019.068c.01.034.019.068.028.1a7.043,7.043,0,0,1,.213,1.754s0,.006,0,.01a.073.073,0,0,1,0,.015L46.1,13.211l24.978-3.3a1.257,1.257,0,0,1,.159-.01,1.219,1.219,0,0,1,1.217,1.073l3.99,33.138L83.422,41.9a1.223,1.223,0,0,1,1.24.327,1.208,1.208,0,0,1,.267,1.249l-.752,2.108-3.038,8.04a1.192,1.192,0,0,1-.3.453l-.182.173L77.967,56.8,79.316,68a1.225,1.225,0,0,1-1.057,1.354L62.588,71.4l-6,5.7-2.845,2.7-.59.56A5.943,5.943,0,0,1,49.041,82Zm-2.7-8.176a3.492,3.492,0,0,0,2.613,5.737,3.877,3.877,0,0,0,2.188-.715Zm2.817-2.732h0l-1.074,1.02,1.012,1.058L52.942,77.2l1.073-1.02-3.1-3.244-1.759-1.84ZM76.5,51.66h0l-.694.66-.751.714-.134.127L74.03,54,57.61,69.6l-.6.569L56.132,71l-.9.855-.625.594-.407.386,1.417,1.483.169.177,1.809-1.718.51-.484.368-.35,3-2.853L75.392,55.875,76.5,54.82l.886-.841.215-.2.479-.455-.61-.638L76.5,51.66ZM15.718,54.7h0c-4.986.879-8.456,5.2-7.9,9.828a10.864,10.864,0,0,0,4.505,7.515,12.571,12.571,0,0,0,7.454,2.39,13.534,13.534,0,0,0,1.618-.1l24.118-3.158,2.954-2.8,0,0,21.482-20.4L72.6,45.455a1.181,1.181,0,0,1,.208-.157.386.386,0,0,1,.05-.026l.024-.012a1.156,1.156,0,0,1,.16-.072l.011,0,.015-.007.993-.315-3.9-32.374L48.648,15.334l7.711,6.414,2.351-1.327a3.277,3.277,0,0,1,1.637-3.29l1.292-.73a3.289,3.289,0,0,1,1.613-.426,3.337,3.337,0,0,1,.886.121,3.274,3.274,0,0,1,.743,6.01l-1.292.731a3.291,3.291,0,0,1-1.611.425,3.332,3.332,0,0,1-.886-.122,3.269,3.269,0,0,1-1.174-.6l-1.55.875L64.355,28.4a1.22,1.22,0,0,1,.419,1.158L63.985,33.8l4.371,3.635a1.22,1.22,0,0,1-.785,2.156,1.23,1.23,0,0,1-.782-.284L54.172,28.814,52,27.011l-3.656,2.065,1.382,2.434a1.221,1.221,0,0,1-.457,1.661,1.244,1.244,0,0,1-.615.162,1.184,1.184,0,0,1-.321-.043,1.232,1.232,0,0,1-.744-.571l-1.382-2.434-3.656,2.064L44.543,45a1.145,1.145,0,0,1,.007.222v.013l.957,6.092a1.224,1.224,0,0,1-2.418.377l-.88-5.606-3.959-1.323a1.219,1.219,0,0,1-.82-.968l-1.235-7.868-1.55.875a3.278,3.278,0,0,1-1.636,3.29l-1.292.73a3.285,3.285,0,0,1-1.612.427,3.319,3.319,0,0,1-.886-.122,3.274,3.274,0,0,1-.743-6.009l1.292-.73a3.284,3.284,0,0,1,1.613-.427,3.311,3.311,0,0,1,2.058.718l2.352-1.328L33.326,17.677l0,0c-.132-.076-.265-.161-.408-.258l-10.965,1.45,4.978,41.353a7.374,7.374,0,0,1-1.75,5.692,8.372,8.372,0,0,1-5.428,2.877,7.372,7.372,0,0,1-.865.051,6.88,6.88,0,0,1-4.075-1.31,6.147,6.147,0,0,1-2.54-4.261,5.158,5.158,0,0,1,.857-3.491,5.747,5.747,0,0,1,2.927-2.214L15.718,54.7Zm57.505-6.467h0l-.695.66-.886.841L54.53,65.987l-1.284,1.22-.51.484-1.808,1.717.17.179.731.765.684.715.984-.934.048-.045.9-.856.878-.834L72.344,52.236l.886-.841.886-.841.572-.544.122-.116-.157-.165-1.429-1.5ZM75.756,58.9,65.591,68.55l11.151-1.46ZM18.17,54.607l.438,3.758a1.223,1.223,0,0,1-1.069,1.352,3.368,3.368,0,0,0-2.151,1.114,2.744,2.744,0,0,0-.69,2.147,3.735,3.735,0,0,0,1.552,2.582,4.428,4.428,0,0,0,2.624.84,4.789,4.789,0,0,0,.582-.036,5.931,5.931,0,0,0,3.85-2.028A4.969,4.969,0,0,0,24.5,60.51,6.51,6.51,0,0,0,21.793,56a7.6,7.6,0,0,0-3.622-1.394ZM11.963,10.422a8.212,8.212,0,0,0-.979.059A9.965,9.965,0,0,0,4.556,13.86a8.433,8.433,0,0,0-2.05,6.535l4.5,37.4a12.069,12.069,0,0,1,3.737-3.738,12.5,12.5,0,0,1,5.261-1.864,10.732,10.732,0,0,1,1.275-.077,10.055,10.055,0,0,1,5.956,1.913c.169.123.329.258.484.388l.05.042L19.184,16.375a6.51,6.51,0,0,0-2.7-4.507A7.619,7.619,0,0,0,11.963,10.422ZM77.49,46.32l-.755.242-1.326.426,1.576,1.649.435.455,0,0L79.437,51.2l.77-2.039Zm4.316-1.386-1.732.556,1.09,1.141.642-1.7ZM35.947,18.6,38.064,32.08l.4,2.575L39.731,42.7l2.05.685.033.011L40.28,33.63l-.4-2.575L37.922,18.61l-.015,0-.015,0a7.215,7.215,0,0,1-.913.059,7.053,7.053,0,0,1-1.031-.079ZM31.382,36.413a.82.82,0,0,0-.41.109l-.567.319-.725.41a.835.835,0,0,0,.19,1.537.86.86,0,0,0,.229.031.831.831,0,0,0,.41-.108l.73-.412.563-.318a.841.841,0,0,0-.419-1.569ZM43.57,14.288a7.094,7.094,0,0,1-1,1.7l.158.131,9.546,7.939,2.008,1.67,7.551,6.279.407-2.192L56.093,24.7l-2.008-1.67L45.353,15.77,43.57,14.288ZM40.5,17.744h0c-.071.041-.145.08-.216.117l1.87,11.909,2.855-1.612-1.382-2.434a1.22,1.22,0,0,1,.457-1.66,1.247,1.247,0,0,1,.613-.163,1.188,1.188,0,0,1,.323.044,1.233,1.233,0,0,1,.743.572l1.383,2.434L50,25.34l-9.285-7.721-.02.013c-.058.034-.123.073-.188.109l0,0Zm22.755.672a.836.836,0,0,0-.408.107l-.728.41-.564.319a.836.836,0,0,0,.191,1.537.886.886,0,0,0,.229.03.837.837,0,0,0,.41-.106l.566-.319.725-.41a.839.839,0,0,0-.421-1.569ZM36.93,6.825h-.021a4.55,4.55,0,0,0-.531.033l-.056.01-.054.01c-.139.02-.282.048-.424.083l-.035.01-.023.007-.124.033c-.117.034-.237.075-.359.121l-.029.011c-.045.017-.092.034-.136.053a4.875,4.875,0,0,0-.5.239,4.765,4.765,0,0,0-.984.744,4.685,4.685,0,0,0-.8,5.668,4.77,4.77,0,0,0,.372.549l.029.037.041.052a4.533,4.533,0,0,0,.346.373,4.728,4.728,0,0,0,1.311.923l.005,0a4.65,4.65,0,0,0,2,.449,4.689,4.689,0,0,0,1.539-.26l.006,0,.007,0c.144-.051.274-.1.4-.157.146-.066.266-.126.377-.188s.213-.128.351-.221c.113-.079.225-.165.342-.263l.009-.005.006,0,.015-.011.016-.012a4.63,4.63,0,0,0,1.019-1.227A4.52,4.52,0,0,0,41.657,12a4.835,4.835,0,0,0,.018-.727v-.011a4.86,4.86,0,0,0-.092-.7,4.662,4.662,0,0,0-.184-.633c-.016-.043-.033-.086-.05-.13a4.635,4.635,0,0,0-.276-.587,4.685,4.685,0,0,0-2.847-2.217,4.908,4.908,0,0,0-.564-.115c-.055-.008-.111-.014-.166-.021-.146-.016-.29-.026-.43-.029h-.031Z" transform="translate(0 0)" fill="#002a4f"/>
    </g>
  </g>
  <path id="Fill_4" data-name="Fill 4" d="M3.506,7a3.516,3.516,0,0,1-1.845-.53A3.44,3.44,0,0,1,.456,5.225,3.462,3.462,0,0,1,.878,1.2a3.516,3.516,0,0,1,.9-.747A3.5,3.5,0,1,1,3.506,7ZM3.5,2.3a1.2,1.2,0,1,0,1.047.609A1.192,1.192,0,0,0,3.5,2.3Z" transform="translate(34 8)" fill="#002a4f"/>
</svg>
