<svg id="icon5" xmlns="http://www.w3.org/2000/svg" xmlns:xlink="http://www.w3.org/1999/xlink" width="88" height="82" viewBox="0 0 88 82">
  <defs>
    <clipPath id="clip-path">
      <path id="Clip_2" data-name="Clip 2" d="M0,0H88V82H0Z" fill="none"/>
    </clipPath>
  </defs>
  <g id="Group_3" data-name="Group 3">
    <path id="Clip_2-2" data-name="Clip 2" d="M0,0H88V82H0Z" fill="none"/>
    <g id="Group_3-2" data-name="Group 3" clip-path="url(#clip-path)">
      <path id="Fill_1" data-name="Fill 1" d="M66.45,82a1.977,1.977,0,0,1-1.376-.608L42.114,56.275,18.682,81.4A1.87,1.87,0,0,1,17.316,82h-.007A11.348,11.348,0,0,1,5.958,70.648a1.87,1.87,0,0,1,.595-1.366L32.182,45.41,28.625,41.52a1.858,1.858,0,0,1-.084-2.409L16.9,27.477c-.248.024-.5.035-.746.035a7.654,7.654,0,0,1-6.7-3.864L.366,11.366A1.858,1.858,0,0,1,.548,8.932l4.906-4.9a1.869,1.869,0,0,1,2.434-.183l12.289,9.08a7.588,7.588,0,0,1,1.576,1.191,7.787,7.787,0,0,1,2.255,6.257l11.64,11.633a1.885,1.885,0,0,1,1.16-.4,1.85,1.85,0,0,1,1.251.485l4.253,3.884L52.4,26.581A18.675,18.675,0,0,1,76.157,1.3,1.869,1.869,0,0,1,76.8,4.36L68.07,13.082a4.852,4.852,0,0,0,.768,7.466,4.511,4.511,0,0,0,2.517.736,5.379,5.379,0,0,0,3.764-1.573L83.638,11.2a1.861,1.861,0,0,1,1.323-.547,1.889,1.889,0,0,1,.382.039A1.86,1.86,0,0,1,86.7,11.836a18.671,18.671,0,0,1-4.172,20.049,18.482,18.482,0,0,1-6.14,4.07,18.728,18.728,0,0,1-7.082,1.382,18.518,18.518,0,0,1-7.9-1.751l-8.978,9.628L77.95,68.522a1.87,1.87,0,0,1,.609,1.379A12.095,12.095,0,0,1,66.461,82ZM33.425,39.487h0l-.832.832,2.325,2.543,2.524,2.76,4.7,5.14,2.532,2.769L67.247,78.224a8.207,8.207,0,0,0,3.676-1.259L46.025,52.08l-2.646-2.646L38.54,44.6l-2.647-2.645-2.468-2.467Zm1.28,8.684L9.737,71.427a7.613,7.613,0,0,0,6.8,6.8L39.583,53.506,34.7,48.171Zm2.151-12.113h0l-.786.786,2.561,2.56,2.646,2.645,4.653,4.65,2.647,2.645,24.98,24.968a8.2,8.2,0,0,0,1.224-3.618l-24.9-22.744-2.762-2.522-4.779-4.365-2.77-2.53-2.71-2.475ZM69.312,3.741A14.923,14.923,0,0,0,56.334,26.058a1.863,1.863,0,0,1-.35,2.293l-10.9,10.155,4.585,4.187L59.635,32a1.874,1.874,0,0,1,2.294-.351,14.93,14.93,0,0,0,22.1-15.558l-6.269,6.265a9.128,9.128,0,0,1-6.394,2.683,8.267,8.267,0,0,1-4.611-1.381,8.589,8.589,0,0,1-1.334-13.219L71.9,3.966A14.987,14.987,0,0,0,69.312,3.741ZM17.551,23.613a1.856,1.856,0,0,1,1.323.548l12.3,12.29,1.816-1.815L20.69,22.345a1.859,1.859,0,0,1-.5-1.744,3.96,3.96,0,0,0-1.967-4.483A1.743,1.743,0,0,1,18.039,16L6.96,7.811,4.333,10.437,12.524,21.51c.045.063.086.127.122.188a3.912,3.912,0,0,0,3.527,2.073,4.277,4.277,0,0,0,.957-.109A1.817,1.817,0,0,1,17.551,23.613Z" transform="translate(0)" fill="#002a4f"/>
    </g>
  </g>
  <path id="Fill_4" data-name="Fill 4" d="M2.5,0A2.5,2.5,0,1,0,5,2.5,2.5,2.5,0,0,0,2.5,0" transform="translate(13 70)" fill="#002a4f"/>
</svg>
