<svg id="icon4" xmlns="http://www.w3.org/2000/svg" xmlns:xlink="http://www.w3.org/1999/xlink" width="82" height="82" viewBox="0 0 82 82">
  <defs>
    <clipPath id="clip-path">
      <path id="Clip_2" data-name="Clip 2" d="M0,0H82V82H0Z" fill="none"/>
    </clipPath>
  </defs>
  <g id="Group_3" data-name="Group 3">
    <path id="Clip_2-2" data-name="Clip 2" d="M0,0H82V82H0Z" fill="none"/>
    <g id="Group_3-2" data-name="Group 3" clip-path="url(#clip-path)">
      <path id="Fill_1" data-name="Fill 1" d="M41.817,82c-.031,0-.063,0-.1,0l-5.445-.5a1.1,1.1,0,0,1-.986-.916L33.718,71.23a30.538,30.538,0,0,1-8.092-3.208L17.286,73.64a1.1,1.1,0,0,1-1.335-.08L12.1,70.226a1.137,1.137,0,0,1-.15-.158L8.594,65.745a1.106,1.106,0,0,1,0-1.347l5.769-7.549a30.651,30.651,0,0,1-3.245-7.914L1.422,47.291a1.1,1.1,0,0,1-.912-.978l-.5-5.078a1.108,1.108,0,0,1,0-.211l.5-5.448a1.1,1.1,0,0,1,.914-.986l9.9-1.664A30.614,30.614,0,0,1,14.532,25.5L8.969,16.847a1.11,1.11,0,0,1,.106-1.335l3.4-3.792a1.153,1.153,0,0,1,.155-.142l4.358-3.312a1.088,1.088,0,0,1,.665-.225,1.107,1.107,0,0,1,.679.234l7.755,6.076a30.371,30.371,0,0,1,6.982-2.791L34.787,1.424A1.1,1.1,0,0,1,35.763.51l5.065-.5A1.072,1.072,0,0,1,40.937,0c.033,0,.068,0,.1,0l5.44.506a1.1,1.1,0,0,1,.985.914L49.192,11.7a30.554,30.554,0,0,1,5.926,2.364l8.95-6.034a1.1,1.1,0,0,1,1.336.08l3.854,3.339a1.166,1.166,0,0,1,.148.157l3.354,4.318a1.105,1.105,0,0,1,.005,1.347l-5.878,7.695a30.639,30.639,0,0,1,3.154,6.7l10.537,1.794a1.105,1.105,0,0,1,.912.978l.5,5.073a1.1,1.1,0,0,1,0,.211l-.5,5.448a1.1,1.1,0,0,1-.914.986L70.9,47.785a30.656,30.656,0,0,1-2.762,7.7L74,64.2a1.107,1.107,0,0,1-.08,1.336l-3.329,3.859a1.067,1.067,0,0,1-.157.149L66.119,72.9a1.106,1.106,0,0,1-.676.233,1.09,1.09,0,0,1-.669-.227l-7.383-5.66A30.55,30.55,0,0,1,49.624,70.8l-1.662,9.779a1.1,1.1,0,0,1-.977.913l-5.06.5C41.889,82,41.853,82,41.817,82ZM25.586,65.616a1.1,1.1,0,0,1,.569.158,28.337,28.337,0,0,0,8.756,3.465,1.1,1.1,0,0,1,.857.9l1.549,9.24,4.5.412,4.119-.407,1.638-9.634a1.105,1.105,0,0,1,.8-.879,28.326,28.326,0,0,0,8.456-3.886,1.1,1.1,0,0,1,1.287.038l7.329,5.619,3.554-2.77L71.7,64.73l-5.755-8.567a1.1,1.1,0,0,1-.052-1.145,28.368,28.368,0,0,0,3-8.4,1.106,1.106,0,0,1,.9-.884l9.586-1.615.417-4.5-.41-4.13-9.863-1.679a1.041,1.041,0,0,1-.13.027,1.1,1.1,0,0,1-1.215-.772,28.4,28.4,0,0,0-3.549-7.546,1.1,1.1,0,0,1,.041-1.283L70.5,16.6l-2.766-3.56L64.6,10.327l-8.8,5.935a1.1,1.1,0,0,1-1.149.05,28.324,28.324,0,0,0-6.7-2.668,1.1,1.1,0,0,1-.813-.886L45.432,2.628l-4.491-.417-4.124.411-1.7,10.02a1.1,1.1,0,0,1-.832.889,28.108,28.108,0,0,0-7.743,3.1,1.1,1.1,0,0,1-1.235-.085l-7.668-6.007-3.6,2.735-2.765,3.087,5.485,8.528a1.106,1.106,0,0,1,0,1.188,28.36,28.36,0,0,0-3.5,8.1,1.1,1.1,0,0,1-.885.812l-9.757,1.64-.417,4.5.411,4.136L12.2,46.881a1.1,1.1,0,0,1,.89.841,28.419,28.419,0,0,0,3.54,8.62,1.11,1.11,0,0,1-.062,1.251l-5.709,7.47,2.766,3.566,3.135,2.711L24.971,65.8A1.1,1.1,0,0,1,25.586,65.616Z" transform="translate(0 0)" fill="#002a4f"/>
    </g>
  </g>
  <path id="Fill_4" data-name="Fill 4" d="M13.5,27A13.5,13.5,0,1,1,27,13.5,13.517,13.517,0,0,1,13.5,27Zm0-24.759A11.259,11.259,0,1,0,24.759,13.5,11.27,11.27,0,0,0,13.5,2.241Z" transform="translate(27 28)" fill="#002a4f"/>
</svg>
