<svg id="icon1" xmlns="http://www.w3.org/2000/svg" xmlns:xlink="http://www.w3.org/1999/xlink" width="97" height="72" viewBox="0 0 97 72">
  <defs>
    <clipPath id="clip-path">
      <path id="Clip_2" data-name="Clip 2" d="M0,0H97V72H0Z" fill="none"/>
    </clipPath>
  </defs>
  <g id="Group_3" data-name="Group 3">
    <path id="Clip_2-2" data-name="Clip 2" d="M0,0H97V72H0Z" fill="none"/>
    <g id="Group_3-2" data-name="Group 3" clip-path="url(#clip-path)">
      <path id="Fill_1" data-name="Fill 1" d="M79.029,72h0a16.812,16.812,0,0,1-15.38-10.059l-.5-1.132-.5,1.131a16.784,16.784,0,0,1-31.912-9.465l.1-.625L4.539,51.466a4.616,4.616,0,0,1,.068-9.231h.066l26.141.383.059-4.144.091-16.5a1.1,1.1,0,0,1,.188-.609l.067-.1.021-.117a9.18,9.18,0,0,1,6.878-7.381,9.083,9.083,0,0,1,2.179-.262h.14l.848.012.131-8.975A4.611,4.611,0,0,1,46.019,0h.069a4.6,4.6,0,0,1,4.537,4.683l-.131,8.976,26.83.392.09-6.188a4.618,4.618,0,0,1,4.608-4.547h.066A4.606,4.606,0,0,1,86.624,8l-.09,6.187,1.413.021A9.194,9.194,0,0,1,97,22.933a1.118,1.118,0,0,1-.031.321l-.015.062-.13,12.016,0,.073a1.06,1.06,0,0,1,.01.149l-.06,4.165-.014.043.013.085L96.6,51.536a1.1,1.1,0,0,1-.569.946l-.327.18.047.37A16.877,16.877,0,0,1,79.029,72Zm.057-31.481a14.715,14.715,0,0,0-10.575,4.5,14.455,14.455,0,0,0-3.31,5.508c-.086.259-.168.535-.245.818a1.1,1.1,0,0,1-.114.272l-.042.071-.019.081A14.651,14.651,0,1,0,93.4,52.2l-.017-.084-.042-.075a1.147,1.147,0,0,1-.113-.286c-.04-.174-.083-.341-.13-.51a14.786,14.786,0,0,0-3.237-5.917,14.535,14.535,0,0,0-6.228-4.075A14.384,14.384,0,0,0,79.086,40.52Zm-31.774-.036A14.6,14.6,0,0,0,33.473,50.5c-.048.144-.09.278-.129.408-.016.053-.03.1-.043.153a1.063,1.063,0,0,1-.045.127l-.012.031-.009.032a14.6,14.6,0,1,0,28.24.305l-.028-.085a1.029,1.029,0,0,1-.054-.152,14.729,14.729,0,0,0-3.651-6.434A14.393,14.393,0,0,0,51.9,41.228,14.541,14.541,0,0,0,47.312,40.484ZM4.607,44.431a2.42,2.42,0,0,0-.036,4.84l26.853.391.136-.361.021-.059c.027-.077.056-.155.089-.239a16.7,16.7,0,0,1,8.856-9.289l.042-.018.019-.008a16.725,16.725,0,0,1,12.01-.555,17.186,17.186,0,0,1,1.951.787,16.759,16.759,0,0,1,8.106,8.347l.5,1.133.5-1.133a16.674,16.674,0,0,1,7.382-7.993A16.82,16.82,0,0,1,93.473,46.42l.99,1.652.119-8.2.036-3.249-61.513-.9-.115,8.029a1.1,1.1,0,0,1-1.1,1.082h-.017l-27.236-.4H4.607ZM33.15,23.172l-.058,10.351,61.549.9.112-10.353ZM40.3,15.707a6.889,6.889,0,0,0-1.657.2,6.989,6.989,0,0,0-4.9,4.344l-.273.73,61.226.894-.254-.738a7.04,7.04,0,0,0-4.413-4.378,7.045,7.045,0,0,0-2.115-.357L40.4,15.708ZM82.021,5.512h0A2.429,2.429,0,0,0,79.6,7.9l-.09,6.187,4.829.07.09-6.187a2.413,2.413,0,0,0-2.376-2.453h-.036Zm-36-3.316a2.417,2.417,0,0,0-2.412,2.384l-.131,8.976,4.828.07.131-8.976A2.405,2.405,0,0,0,46.056,2.2Z" transform="translate(-0.001 -0.001)" fill="#002a4f"/>
    </g>
  </g>
  <path id="Fill_4" data-name="Fill 4" d="M6.993,14h0A7,7,0,0,1,.356,4.8c.025-.076.051-.15.083-.233.013-.037.026-.072.041-.11A6.944,6.944,0,0,1,2.19,1.914c.072-.066.151-.138.239-.214A6.994,6.994,0,0,1,6.615.01C6.74,0,6.867,0,6.991,0A7.064,7.064,0,0,1,10.02.688,6.933,6.933,0,0,1,11.727,1.84c.082.073.162.151.247.238a7.057,7.057,0,0,1,1.616,2.57l.035.1A7,7,0,0,1,6.993,14Zm-4.4-8.682h0c0,.012-.008.023-.012.034l-.005.015c-.019.049-.037.1-.054.149a4.715,4.715,0,1,0,8.943-.023l-.027-.079-.006-.019a4.751,4.751,0,0,0-1.089-1.717l-.014-.015c-.046-.047-.088-.088-.13-.125l-.014-.013a4.629,4.629,0,0,0-1.151-.778,4.5,4.5,0,0,0-.552-.221,4.724,4.724,0,0,0-1.492-.243c-.083,0-.168,0-.252.007A4.716,4.716,0,0,0,3.92,3.43c-.065.055-.118.1-.177.159A4.635,4.635,0,0,0,2.607,5.284L2.6,5.3l.261.1Z" transform="translate(41 48)" fill="#002a4f"/>
  <path id="Fill_6" data-name="Fill 6" d="M6.993,14h0A7,7,0,0,1,.356,4.8c.025-.076.051-.15.083-.233.013-.036.025-.07.041-.11a6.945,6.945,0,0,1,1.107-1.9c.059-.072.113-.133.172-.2l.016-.019A7.019,7.019,0,0,1,6.615.01C6.74,0,6.867,0,6.991,0A7,7,0,0,1,9.2.358a6.834,6.834,0,0,1,.819.329,6.922,6.922,0,0,1,2.326,1.8c.079.09.146.176.2.241a6.966,6.966,0,0,1,1.049,1.921l.034.1A7,7,0,0,1,6.993,14Zm-4.4-8.682h0c0,.014-.01.028-.014.041l0,.007c-.019.05-.037.1-.054.15a4.715,4.715,0,1,0,8.943-.024c-.007-.018-.013-.037-.019-.056l-.008-.024-.006-.018a4.756,4.756,0,0,0-.709-1.284c-.04-.052-.069-.089-.1-.125l-.02-.023a4.646,4.646,0,0,0-1.57-1.214,4.569,4.569,0,0,0-.551-.222,4.744,4.744,0,0,0-1.492-.242c-.084,0-.169,0-.252.007A4.732,4.732,0,0,0,3.477,3.863l-.02.023-.022.025c-.029.033-.058.066-.086.1a4.626,4.626,0,0,0-.742,1.273L2.6,5.3l.244.095Z" transform="translate(72 48)" fill="#002a4f"/>
</svg>
