<svg id="logo" xmlns="http://www.w3.org/2000/svg" width="251.1" height="63.6" viewBox="0 0 251.1 63.6">
  <g id="Group" transform="translate(62.9 17.3)">
    <path id="Path" d="M5.2,0V15.9a6.966,6.966,0,0,0,2,4.9,6.8,6.8,0,0,0,4.9,2A6.83,6.83,0,0,0,19,15.9V0h5.2V15.9a12.667,12.667,0,0,1-.9,4.7,13.992,13.992,0,0,1-2.6,3.9,11.6,11.6,0,0,1-3.9,2.6,12.667,12.667,0,0,1-4.7.9,12.292,12.292,0,0,1-4.7-.9,13.992,13.992,0,0,1-3.9-2.6A11.6,11.6,0,0,1,.9,20.6,12.667,12.667,0,0,1,0,15.9V0Z" transform="translate(64.9 0.8)" fill="#002a4f"/>
    <path id="Shape" d="M8.6,27.1a17.678,17.678,0,0,1-4.5-3,13.657,13.657,0,0,1-3-4.5A14.981,14.981,0,0,1,0,14.1,14.981,14.981,0,0,1,1.1,8.6,13.8,13.8,0,0,1,8.6,1.1,14.072,14.072,0,0,1,14,0a14.583,14.583,0,0,1,5.5,1.1A13.79,13.79,0,0,1,27,8.6a14.981,14.981,0,0,1,1.1,5.5A14.981,14.981,0,0,1,27,19.6a14.784,14.784,0,0,1-3,4.5,13.669,13.669,0,0,1-4.5,3A14.583,14.583,0,0,1,14,28.2,14.072,14.072,0,0,1,8.6,27.1Z" transform="translate(94.8 0.6)" fill="#002a4f"/>
    <path id="Path-2" data-name="Path" d="M16.2,21.436a2.193,2.193,0,0,0,.7-1.7c0-.2,0-.6-1.1-1.2a21.076,21.076,0,0,0-4.5-1.8c-.7-.2-1.3-.5-2-.7a21.984,21.984,0,0,1-5.2-2.2,8.255,8.255,0,0,1-2.4-2.1,5.987,5.987,0,0,1-1.1-3.4,7.17,7.17,0,0,1,2.1-5.2A10.3,10.3,0,0,1,7.3.536c4.9-1.4,11.7-.1,14.4,4.4l-4.5,2.7a5.713,5.713,0,0,0-3.4-2.1,11.414,11.414,0,0,0-5.2,0,5.512,5.512,0,0,0-2.3,1.2,2.2,2.2,0,0,0-.6,1.5c0,.1,0,.5.9,1.1a26.7,26.7,0,0,0,4.1,1.7h.1c.6.2,1.3.5,1.9.7a24.523,24.523,0,0,1,5.5,2.3,7.549,7.549,0,0,1,2.5,2.1,5.707,5.707,0,0,1,1.2,3.5,7.493,7.493,0,0,1-2.2,5.3,11.413,11.413,0,0,1-4.7,2.7,14.213,14.213,0,0,1-4.2.6,17.524,17.524,0,0,1-4-.5,14.484,14.484,0,0,1-3.8-1.6,8.613,8.613,0,0,1-3-3l4.5-2.7a6.117,6.117,0,0,0,3.6,2.3,12.752,12.752,0,0,0,5.5,0A5.3,5.3,0,0,0,16.2,21.436Z" transform="translate(127.4 0.364)" fill="#002a4f"/>
    <path id="Path-3" data-name="Path" d="M5.1,28.2H0V0H5.1Z" transform="translate(155.4 0.6)" fill="#002a4f"/>
    <path id="Path-4" data-name="Path" d="M16.2,21.436a2.193,2.193,0,0,0,.7-1.7c0-.2,0-.6-1.1-1.2a21.076,21.076,0,0,0-4.5-1.8c-.7-.2-1.3-.5-2-.7a21.984,21.984,0,0,1-5.2-2.2,8.255,8.255,0,0,1-2.4-2.1,5.987,5.987,0,0,1-1.1-3.4,7.17,7.17,0,0,1,2.1-5.2A10.3,10.3,0,0,1,7.3.536c4.9-1.4,11.7-.1,14.4,4.4l-4.5,2.7a5.713,5.713,0,0,0-3.4-2.1,11.414,11.414,0,0,0-5.2,0,5.512,5.512,0,0,0-2.3,1.2,2.2,2.2,0,0,0-.6,1.5c0,.1,0,.5.9,1.1a26.7,26.7,0,0,0,4.1,1.7h.1c.6.2,1.3.5,1.9.7a24.523,24.523,0,0,1,5.5,2.3,7.549,7.549,0,0,1,2.5,2.1,5.707,5.707,0,0,1,1.2,3.5,7.493,7.493,0,0,1-2.2,5.3,11.413,11.413,0,0,1-4.7,2.7,14.213,14.213,0,0,1-4.2.6,17.524,17.524,0,0,1-4-.5,14.484,14.484,0,0,1-3.8-1.6,8.613,8.613,0,0,1-3-3l4.5-2.7a6.117,6.117,0,0,0,3.6,2.3,12.752,12.752,0,0,0,5.5,0A5.3,5.3,0,0,0,16.2,21.436Z" transform="translate(166.3 0.364)" fill="#002a4f"/>
    <path id="Path-5" data-name="Path" d="M27.7,28.8,16.5,5.5l-.1-.3L13.9,0,11.4,5.2l-.3.6L0,28.8H5.3l1.1-2.2h0l3.4-7.1h0l4-8.3L17.1,18h0l.7,1.5h0l3.1,6.2h0l1.5,3.1Z" transform="translate(0)" fill="#002a4f"/>
    <path id="Shape-2" data-name="Shape" d="M20.9,28.2,20,26.9a1.688,1.688,0,0,0-.5.2A14.583,14.583,0,0,1,14,28.2a14.072,14.072,0,0,1-5.4-1.1,13.659,13.659,0,0,1-4.5-3,14.771,14.771,0,0,1-3-4.5A14.981,14.981,0,0,1,0,14.1,14.981,14.981,0,0,1,1.1,8.6,13.8,13.8,0,0,1,8.6,1.1,14.072,14.072,0,0,1,14,0a14.583,14.583,0,0,1,5.5,1.1A13.79,13.79,0,0,1,27,8.6a14.981,14.981,0,0,1,1.1,5.5A14.981,14.981,0,0,1,27,19.6a13.263,13.263,0,0,1-2.7,4.1l3,4.5Z" transform="translate(30.6 0.5)" fill="#002a4f"/>
  </g>
  <g id="Group-2" data-name="Group" transform="translate(2.8 0)">
    <path id="Path-6" data-name="Path" d="M4.1,31.7l2.2-4.1,3.5-6.4L17.6,7l7.7,14.1,3.5,6.3,6.7,12.3h.1a24.482,24.482,0,0,0,3.1-1.2L30.9,24.2,17.7,0,4.4,24.4,0,32.4a18.633,18.633,0,0,1,2.7-.5A4.636,4.636,0,0,1,4.1,31.7Z" transform="translate(0 0)" fill="#149b9e"/>
    <path id="Path-7" data-name="Path" d="M24.2,26.2l-.7-1.3-3.6-6.6-4-7.3L13.4,6.4,9.9,0,6.4,6.4,3.9,11,0,18.1H.2a19.093,19.093,0,0,1,3.3.6l2.2-4L8.3,10,9.9,7l1.6,3,2.6,4.7,4.1,7.5,1.1,2,1.1,2h3.8Z" transform="translate(7.7 13.6)" fill="#149b9e"/>
  </g>
  <g id="Group-3" data-name="Group" transform="translate(0 35.4)">
    <path id="Path-8" data-name="Path" d="M27.6,22.3c-2.3,1-5.3,1-7.8,1-10,0-15.9-7-16-17.4a13.552,13.552,0,0,1,.2-2A24.5,24.5,0,0,1,4.8,0,13.266,13.266,0,0,0,2.4.4,8.51,8.51,0,0,0,.7,1,8.3,8.3,0,0,0,.2,3C.2,3.1.1,4.3.1,4.3c0,.6-.1.9-.1,1.5C0,17.9,7.5,27.2,20.5,27.3a23.517,23.517,0,0,0,6.9-1h.1l.8,1.2h4.4L29,21.6Z" transform="translate(0 0.5)" fill="#002a4f"/>
    <path id="Path-9" data-name="Path" d="M4.6,13.3l.1-.1A21.888,21.888,0,0,0,9.6,0,16.913,16.913,0,0,1,6,1.2,18.8,18.8,0,0,1,1.1,12.1L0,13.2l5,8H9.8Z" transform="translate(32.7 6.8)" fill="#002a4f"/>
    <path id="Path-10" data-name="Path" d="M4.775.4a11.479,11.479,0,0,0-3.1-.4h-.4a13.969,13.969,0,0,0-.9,2.9A7.613,7.613,0,0,0,.075,5a15.037,15.037,0,0,0,0,3,12.718,12.718,0,0,0,12.8,11.9,15.378,15.378,0,0,0,4-.4l2.4-.7-5.6-8.6h-4.3l4,6.1h-.4c-5.4-.2-9.6-5.2-9.3-9.9A17.1,17.1,0,0,1,4.975.5.349.349,0,0,1,4.775.4Z" transform="translate(7.325)" fill="#002a4f"/>
    <path id="Path-11" data-name="Path" d="M7.3,4.9A10.654,10.654,0,0,0,9.1,0C9,0,7.5.2,7,.2H4.8a6.606,6.606,0,0,1-.5,1.5l-.1.1H0L4.1,8.1l.8-.6A5.241,5.241,0,0,0,6,6.5,9.137,9.137,0,0,0,7.3,4.9Z" transform="translate(26.1 8.4)" fill="#002a4f"/>
  </g>
  <g id="Group-4" data-name="Group" transform="translate(62.9 55.3)">
    <g id="Group-5" data-name="Group" transform="translate(0 0)">
      <path id="Shape-3" data-name="Shape" d="M0,8.2V0H3.8C5.5,0,6.5.8,6.5,2.1A2.061,2.061,0,0,1,5.4,3.9a2.042,2.042,0,0,1,1.5,2c.1,1.5-1.1,2.3-3,2.3Z" fill="#002a4f"/>
      <path id="Path-12" data-name="Path" d="M4.9,4.9V8.2H3.1V5L0,0H2.1l2,3.3L6.1,0h2Z" transform="translate(7.3)" fill="#002a4f"/>
    </g>
    <g id="Group_155_00000023269314129466070250000001909240544343973008_" transform="translate(16.6)">
      <rect id="Rectangle_4_00000176036225043407524620000009677996039388706216_" width="0.7" height="7.9" transform="translate(61 0.3)" fill="#002a4f"/>
      <path id="Path_28_00000164485127378525604150000001078762709076846745_" d="M0,0V6.5H.7V.7H3.1V0Z" transform="translate(35.8 1.7)" fill="#002a4f"/>
      <path id="Path_29_00000067225470869074677740000003129622643450897557_" d="M0,0V.7H2.4V6.5h.7V0Z" transform="translate(32 1.7)" fill="#002a4f"/>
      <rect id="Rectangle_5_00000117673868527228584670000005355965332336244152_" width="6.9" height="0.7" transform="translate(32 0.3)" fill="#002a4f"/>
      <path id="Path_30_00000006667250428865128250000001811330432604900263_" d="M0,0V7.9H5.5V7.2H.7V.7H5.5V0H0Z" transform="translate(40 0.3)" fill="#002a4f"/>
      <rect id="Rectangle_6_00000011032675122672043850000015280988530740610207_" width="0.7" height="7.9" transform="translate(54.8 0.3)" fill="#002a4f"/>
      <path id="Path_31_00000010299574658372445270000004344715897193268907_" d="M0,0V3.6H.7V.7H3.4V3.6h.7V0Z" transform="translate(56.2 4.6)" fill="#002a4f"/>
      <path id="Path_32_00000147932631538828841450000015265071983611867563_" d="M0,0V3.6H4.1V0H3.4V2.9H.7V0Z" transform="translate(56.2 0.3)" fill="#002a4f"/>
      <path id="Path_33_00000083785898237573765700000013753832818993382329_" d="M7.987,7.887l-.9-1.4h0a3.982,3.982,0,1,0-5.6.6,3.84,3.84,0,0,0,2.5.9,5.853,5.853,0,0,0,1.3-.2h0l.1.2h.8l-.7-1.1-.3.1a2.768,2.768,0,0,1-1.3.3,3.329,3.329,0,0,1-3.3-3.3,3.329,3.329,0,0,1,3.3-3.3,3.329,3.329,0,0,1,3.3,3.3,3.523,3.523,0,0,1-.9,2.3l-.2.2,1,1.5Z" transform="translate(8.513 0.313)" fill="#002a4f"/>
      <path id="Path_34_00000005240888401281590740000013141289018408865178_" d="M2.5,0A2.476,2.476,0,0,0,0,2.5,2.476,2.476,0,0,0,2.5,5a1.7,1.7,0,0,0,.7-.1l.4-.1-1-1.6H1.7l.7,1.1H2.3A1.88,1.88,0,0,1,.5,2.4,1.88,1.88,0,0,1,2.4.6,1.793,1.793,0,0,1,4.2,2.4a1.7,1.7,0,0,1-.1.7H3.5l.7,1.1.3-.4A2.546,2.546,0,0,0,3.9.3,5.768,5.768,0,0,0,2.5,0" transform="translate(10.1 1.7)" fill="#002a4f"/>
      <path id="Path_35_00000034077145348081190330000001305593298818947244_" d="M3.5,7.9A3.543,3.543,0,0,0,7,4.4V0H6.3V4.4A2.8,2.8,0,0,1,3.5,7.2,2.734,2.734,0,0,1,.7,4.4h0V0H0V4.4A3.543,3.543,0,0,0,3.5,7.9" transform="translate(17.4 0.3)" fill="#002a4f"/>
      <path id="Path_36_00000055675957199415811330000003611036068186224782_" d="M2,6.4a2.006,2.006,0,0,0,2-2V0H3.3V4.4A1.324,1.324,0,0,1,2,5.7,1.324,1.324,0,0,1,.7,4.4V0H0V4.4a2.006,2.006,0,0,0,2,2" transform="translate(18.9 0.3)" fill="#002a4f"/>
      <path id="Path_37_00000180354170338501056000000018165181915122565540_" d="M4.5,0,0,8.2H.8L4.5,1.5,8.2,8.2H9Z" transform="translate(0)" fill="#002a4f"/>
      <path id="Path_38_00000000210653863168092230000003570812724676914594_" d="M0,5.4H.8L2.9,1.5,5,5.4h.8L2.9,0Z" transform="translate(1.6 2.8)" fill="#002a4f"/>
      <path id="Path_39_00000088120061265814636290000015139028562051278219_" d="M4.5,0,0,8.2H.8L4.5,1.5,8.2,8.2H9Z" transform="translate(24.1)" fill="#002a4f"/>
      <path id="Path_40_00000005257596101130994790000016905802965150887846_" d="M0,5.4H.8L2.9,1.5,5,5.4h.8L2.9,0Z" transform="translate(25.7 2.8)" fill="#002a4f"/>
      <path id="Path_41_00000075128922786360029640000000776943869851870396_" d="M4.644,1.244a2.467,2.467,0,0,0-3.4-.9,2.467,2.467,0,0,0-.9,3.4,2.467,2.467,0,0,0,3.4.9,1.962,1.962,0,0,0,.9-.9l-.6-.4a1.787,1.787,0,0,1-2.5.6,1.787,1.787,0,0,1-.6-2.5,1.787,1.787,0,0,1,2.5-.6,1.7,1.7,0,0,1,.6.6Z" transform="translate(48.056 1.656)" fill="#002a4f"/>
      <path id="Path_42_00000165225346832178956270000008882828727686704807_" d="M7.348,1.948a3.945,3.945,0,0,0-6.8,4,3.923,3.923,0,0,0,5.4,1.4,3.76,3.76,0,0,0,1.4-1.4l-.6-.4a3.332,3.332,0,0,1-4.5,1.1,3.332,3.332,0,0,1-1.1-4.5,3.332,3.332,0,0,1,4.5-1.1,2.892,2.892,0,0,1,1.1,1.1Z" transform="translate(46.552 0.252)" fill="#002a4f"/>
      <path id="Path_43_00000129202279742025745630000011233643214348559547_" d="M4,.7V0H0V2.1H4.1V1.4H.7V.7Z" transform="translate(41.5 1.7)" fill="#002a4f"/>
      <path id="Path_44_00000134214311986215629220000010340913060868033172_" d="M4.1.7V0H0V2.1H4V1.4H.6V.7Z" transform="translate(41.4 4.6)" fill="#002a4f"/>
      <path id="Path_45_00000137108394345868967840000017223508058592066952_" d="M.3.6.2.4H.1V.6H0V0H.3A.353.353,0,0,1,.5.1V.2C.5.3.4.3.2.4L.4.6Z" transform="translate(62.7 0.5)" fill="#002a4f"/>
      <path id="Path_46_00000019663793535659726000000002287409828949353627_" d="M0,.5A.472.472,0,0,1,.5,0h0c.3,0,.6.2.5.5A.472.472,0,0,1,.5,1,.472.472,0,0,1,0,.5Z" transform="translate(62.4 0.3)" fill="#002a4f"/>
      <path id="Path_155_00000142166599686175031540000014006140485736088232_" d="M4.5,0,0,8.2H.8L4.5,1.5,8.2,8.2H9Z" transform="translate(0)" fill="#002a4f"/>
      <path id="Path_156_00000171696094715514729610000018384152583217529255_" d="M0,5.4H.8L2.9,1.5,5,5.4h.8L2.9,0Z" transform="translate(1.6 2.8)" fill="#002a4f"/>
    </g>
  </g>
</svg>
