<svg id="main-screen-logo" xmlns="http://www.w3.org/2000/svg" width="453" height="114" viewBox="0 0 453 114">
  <g id="Group" transform="translate(113 30)">
    <path id="Path" d="M9.394,0V28.708a12.573,12.573,0,0,0,3.613,8.847,12.28,12.28,0,0,0,8.852,3.611A12.335,12.335,0,0,0,34.325,28.708V0h9.394V28.708a22.859,22.859,0,0,1-1.626,8.486,25.262,25.262,0,0,1-4.7,7.042,20.955,20.955,0,0,1-7.046,4.694,22.9,22.9,0,0,1-8.491,1.625,22.217,22.217,0,0,1-8.491-1.625,25.278,25.278,0,0,1-7.046-4.694,20.942,20.942,0,0,1-4.7-7.042A22.859,22.859,0,0,1,0,28.708V0Z" transform="translate(117.248 1.444)" fill="#fff"/>
    <path id="Shape" d="M15.537,48.93a31.961,31.961,0,0,1-8.13-5.416,24.653,24.653,0,0,1-5.42-8.125A27.044,27.044,0,0,1,0,25.458a27.044,27.044,0,0,1,1.987-9.931A24.9,24.9,0,0,1,15.537,1.986,25.442,25.442,0,0,1,25.292,0a26.359,26.359,0,0,1,9.937,1.986A24.9,24.9,0,0,1,48.778,15.528a27.044,27.044,0,0,1,1.987,9.931,27.044,27.044,0,0,1-1.987,9.931,26.674,26.674,0,0,1-5.42,8.125,24.675,24.675,0,0,1-8.13,5.416,26.359,26.359,0,0,1-9.937,1.986A25.442,25.442,0,0,1,15.537,48.93Z" transform="translate(171.265 1.083)" fill="#fff"/>
    <path id="Path-2" data-name="Path" d="M29.267,38.7a3.959,3.959,0,0,0,1.265-3.069c0-.361,0-1.083-1.987-2.167a38.089,38.089,0,0,0-8.13-3.25c-1.265-.361-2.349-.9-3.613-1.264-3.252-1.083-6.684-2.167-9.394-3.972A14.911,14.911,0,0,1,3.071,21.19a10.805,10.805,0,0,1-1.987-6.139A12.941,12.941,0,0,1,4.878,5.662C6.865,3.5,9.756,2.051,13.188.968,22.04-1.56,34.325.787,39.2,8.912l-8.13,4.875A10.321,10.321,0,0,0,24.931,10a20.633,20.633,0,0,0-9.394,0,9.96,9.96,0,0,0-4.155,2.167A3.98,3.98,0,0,0,10.3,14.871c0,.181,0,.9,1.626,1.986a48.255,48.255,0,0,0,7.407,3.069h.181c1.084.361,2.349.9,3.433,1.264a44.316,44.316,0,0,1,9.936,4.153A13.636,13.636,0,0,1,37.4,29.135a10.3,10.3,0,0,1,2.168,6.319,13.524,13.524,0,0,1-3.974,9.569A20.622,20.622,0,0,1,27.1,49.9a25.69,25.69,0,0,1-7.588,1.083,31.676,31.676,0,0,1-7.226-.9A26.175,26.175,0,0,1,5.42,47.19,15.555,15.555,0,0,1,0,41.773L8.13,36.9c1.084,1.806,3.433,3.25,6.5,4.153a23.05,23.05,0,0,0,9.936,0A9.567,9.567,0,0,0,29.267,38.7Z" transform="translate(230.159 0.657)" fill="#fff"/>
    <path id="Path-3" data-name="Path" d="M9.214,50.917H0V0H9.214Z" transform="translate(280.744 1.083)" fill="#fff"/>
    <path id="Path-4" data-name="Path" d="M29.267,38.7a3.959,3.959,0,0,0,1.265-3.069c0-.361,0-1.083-1.987-2.167a38.089,38.089,0,0,0-8.13-3.25c-1.265-.361-2.349-.9-3.613-1.264-3.252-1.083-6.684-2.167-9.394-3.972A14.911,14.911,0,0,1,3.071,21.19a10.805,10.805,0,0,1-1.987-6.139A12.941,12.941,0,0,1,4.878,5.662C6.865,3.5,9.756,2.051,13.188.968,22.04-1.56,34.325.787,39.2,8.912l-8.13,4.875A10.321,10.321,0,0,0,24.931,10a20.633,20.633,0,0,0-9.394,0,9.96,9.96,0,0,0-4.155,2.167A3.98,3.98,0,0,0,10.3,14.871c0,.181,0,.9,1.626,1.986a48.255,48.255,0,0,0,7.407,3.069h.181c1.084.361,2.349.9,3.433,1.264a44.316,44.316,0,0,1,9.936,4.153A13.636,13.636,0,0,1,37.4,29.135a10.3,10.3,0,0,1,2.168,6.319,13.524,13.524,0,0,1-3.974,9.569A20.622,20.622,0,0,1,27.1,49.9a25.69,25.69,0,0,1-7.588,1.083,31.676,31.676,0,0,1-7.226-.9A26.175,26.175,0,0,1,5.42,47.19,15.555,15.555,0,0,1,0,41.773L8.13,36.9c1.084,1.806,3.433,3.25,6.5,4.153a23.05,23.05,0,0,0,9.936,0A9.567,9.567,0,0,0,29.267,38.7Z" transform="translate(300.436 0.657)" fill="#fff"/>
    <path id="Path-5" data-name="Path" d="M50.043,52,29.809,9.931l-.181-.542L25.112,0,20.6,9.389l-.542,1.083L0,52H9.575l1.987-3.972h0L17.7,35.208h0l7.226-14.986L30.893,32.5h0l1.265,2.708h0l5.6,11.194h0l2.71,5.6Z" fill="#fff"/>
    <path id="Shape-2" data-name="Shape" d="M37.758,50.917l-1.626-2.347a3.068,3.068,0,0,0-.9.361,26.359,26.359,0,0,1-9.937,1.986,25.442,25.442,0,0,1-9.755-1.986,24.675,24.675,0,0,1-8.13-5.416,26.657,26.657,0,0,1-5.42-8.125A27.044,27.044,0,0,1,0,25.458a27.044,27.044,0,0,1,1.987-9.931A24.9,24.9,0,0,1,15.537,1.986,25.442,25.442,0,0,1,25.292,0a26.359,26.359,0,0,1,9.937,1.986A24.9,24.9,0,0,1,48.778,15.528a27.044,27.044,0,0,1,1.987,9.931,27.044,27.044,0,0,1-1.987,9.931,23.935,23.935,0,0,1-4.878,7.4l5.42,8.125Z" transform="translate(55.282 0.903)" fill="#fff"/>
  </g>
  <g id="Group-2" data-name="Group" transform="translate(5)">
    <path id="Path-6" data-name="Path" d="M7.31,56.55l3.922-7.314,6.24-11.417L31.38,12.487,45.109,37.641l6.24,11.239L63.295,70.822h.178A43.638,43.638,0,0,0,69,68.681L55.093,43.171,31.558,0,7.845,43.528,0,57.8a33.206,33.206,0,0,1,4.814-.892A8.261,8.261,0,0,1,7.31,56.55Z" fill="#fff"/>
    <path id="Path-7" data-name="Path" d="M43.147,46.739,41.9,44.42,35.481,32.646,28.349,19.623l-4.457-8.206L17.651,0l-6.24,11.417L6.953,19.623,0,32.289H.357a34.025,34.025,0,0,1,5.884,1.07l3.922-7.136L14.8,17.839l2.853-5.352L20.5,17.839l4.636,8.384L32.45,39.6l1.961,3.568,1.961,3.568h6.775Z" transform="translate(13.729 24.261)" fill="#fff"/>
  </g>
  <g id="Group-3" data-name="Group" transform="translate(0 63)">
    <path id="Path-8" data-name="Path" d="M50,40.618c-4.167,1.821-9.6,1.821-14.132,1.821-18.118,0-28.807-12.75-28.988-31.693A24.812,24.812,0,0,1,7.247,7.1,44.826,44.826,0,0,1,8.7,0,23.919,23.919,0,0,0,4.348.729a15.364,15.364,0,0,0-3.08,1.093A15.18,15.18,0,0,0,.362,5.464c0,.182-.181,2.368-.181,2.368C.181,8.925,0,9.471,0,10.564,0,32.6,13.588,49.543,37.141,49.725a42.4,42.4,0,0,0,12.5-1.821h.181l1.449,2.186h7.972l-6.7-10.746Z" transform="translate(0 0.911)" fill="#fff"/>
    <path id="Path-9" data-name="Path" d="M8.334,24.225l.181-.182A39.995,39.995,0,0,0,17.393,0a30.529,30.529,0,0,1-6.522,2.186A34.335,34.335,0,0,1,1.993,22.039L0,24.043,9.059,38.614h8.7Z" transform="translate(59.245 12.386)" fill="#fff"/>
    <path id="Path-10" data-name="Path" d="M8.651.729A20.692,20.692,0,0,0,3.035,0H2.31A25.542,25.542,0,0,0,.679,5.282,13.935,13.935,0,0,0,.136,9.107a27.535,27.535,0,0,0,0,5.464C1.585,29.507,13.362,36.246,23.326,36.246a27.719,27.719,0,0,0,7.247-.729l4.348-1.275L24.776,18.579H16.985l7.247,11.111h-.725c-9.784-.364-17.393-9.471-16.849-18.032A31.278,31.278,0,0,1,9.014.911.632.632,0,0,1,8.651.729Z" transform="translate(13.271)" fill="#fff"/>
    <path id="Path-11" data-name="Path" d="M13.226,8.925A19.469,19.469,0,0,0,16.487,0c-.181,0-2.9.364-3.8.364H8.7A12.077,12.077,0,0,1,7.791,3.1l-.181.182H0L7.428,14.754l1.449-1.093a9.514,9.514,0,0,0,1.993-1.821A16.625,16.625,0,0,0,13.226,8.925Z" transform="translate(47.287 15.3)" fill="#fff"/>
  </g>
  <g id="Group-4" data-name="Group" transform="translate(113 99)">
    <g id="Group-5" data-name="Group" transform="translate(0 0)">
      <path id="Shape-3" data-name="Shape" d="M0,14.819V0H6.838C9.9,0,11.7,1.445,11.7,3.8a3.727,3.727,0,0,1-1.98,3.253c1.62.724,2.7,1.627,2.7,3.614.18,2.711-1.98,4.157-5.4,4.157Z" fill="#fff"/>
      <path id="Path-12" data-name="Path" d="M8.818,8.855v5.964H5.579V9.036L0,0H3.779l3.6,5.964L10.977,0h3.6Z" transform="translate(13.137)" fill="#fff"/>
    </g>
    <g id="Group_155_00000023269314129466070250000001909240544343973008_" transform="translate(29.873)">
      <rect id="Rectangle_4_00000176036225043407524620000009677996039388706216_" width="1.26" height="14.277" transform="translate(109.773 0.542)" fill="#fff"/>
      <path id="Path_28_00000164485127378525604150000001078762709076846745_" d="M0,0V11.747H1.26V1.265H5.579V0Z" transform="translate(64.424 3.072)" fill="#fff"/>
      <path id="Path_29_00000067225470869074677740000003129622643450897557_" d="M0,0V1.265H4.319V11.747h1.26V0Z" transform="translate(57.586 3.072)" fill="#fff"/>
      <rect id="Rectangle_5_00000117673868527228584670000005355965332336244152_" width="12.417" height="1.265" transform="translate(57.586 0.542)" fill="#fff"/>
      <path id="Path_30_00000006667250428865128250000001811330432604900263_" d="M0,0V14.277H9.9V13.012H1.26V1.265H9.9V0H0Z" transform="translate(71.982 0.542)" fill="#fff"/>
      <rect id="Rectangle_6_00000011032675122672043850000015280988530740610207_" width="1.26" height="14.277" transform="translate(98.616 0.542)" fill="#fff"/>
      <path id="Path_31_00000010299574658372445270000004344715897193268907_" d="M0,0V6.506H1.26V1.265H6.118V6.506h1.26V0Z" transform="translate(101.135 8.313)" fill="#fff"/>
      <path id="Path_32_00000147932631538828841450000015265071983611867563_" d="M0,0V6.506H7.378V0H6.118V5.241H1.26V0Z" transform="translate(101.135 0.542)" fill="#fff"/>
      <path id="Path_33_00000083785898237573765700000013753832818993382329_" d="M14.373,14.253l-1.62-2.53h0A7.212,7.212,0,0,0,11.674,1.6,7.14,7.14,0,0,0,1.6,2.687a7.212,7.212,0,0,0,1.08,10.12,6.893,6.893,0,0,0,4.5,1.627,10.491,10.491,0,0,0,2.339-.361h0l.18.361h1.44l-1.26-1.988-.54.181a4.964,4.964,0,0,1-2.339.542A6,6,0,0,1,1.056,7.205,6,6,0,0,1,6.995,1.241a6,6,0,0,1,5.939,5.964,6.383,6.383,0,0,1-1.62,4.157l-.36.361,1.8,2.711Z" transform="translate(15.32 0.566)" fill="#fff"/>
      <path id="Path_34_00000005240888401281590740000013141289018408865178_" d="M4.5,0A4.465,4.465,0,0,0,0,4.518,4.465,4.465,0,0,0,4.5,9.036a3.051,3.051,0,0,0,1.26-.181l.72-.181-1.8-2.892H3.059l1.26,1.988h-.18A3.391,3.391,0,0,1,.9,4.337,3.39,3.39,0,0,1,4.319,1.084,3.233,3.233,0,0,1,7.558,4.337,3.088,3.088,0,0,1,7.378,5.6H6.3L7.558,7.59l.54-.723A4.614,4.614,0,0,0,7.018.542,10.342,10.342,0,0,0,4.5,0" transform="translate(18.176 3.072)" fill="#fff"/>
      <path id="Path_35_00000034077145348081190330000001305593298818947244_" d="M6.3,14.277a6.39,6.39,0,0,0,6.3-6.325V0h-1.26V7.952A5.041,5.041,0,0,1,6.3,13.012,4.931,4.931,0,0,1,1.26,7.952h0V0H0V7.952a6.39,6.39,0,0,0,6.3,6.325" transform="translate(31.312 0.542)" fill="#fff"/>
      <path id="Path_36_00000055675957199415811330000003611036068186224782_" d="M3.6,11.566A3.617,3.617,0,0,0,7.2,7.952V0H5.939V7.952A2.387,2.387,0,0,1,3.6,10.3,2.387,2.387,0,0,1,1.26,7.952V0H0V7.952a3.617,3.617,0,0,0,3.6,3.614" transform="translate(34.012 0.542)" fill="#fff"/>
      <path id="Path_37_00000180354170338501056000000018165181915122565540_" d="M8.1,0,0,14.819H1.44L8.1,2.711l6.658,12.108H16.2Z" fill="#fff"/>
      <path id="Path_38_00000000210653863168092230000003570812724676914594_" d="M0,9.759H1.44L5.219,2.711,9,9.759h1.44L5.219,0Z" transform="translate(2.879 5.06)" fill="#fff"/>
      <path id="Path_39_00000088120061265814636290000015139028562051278219_" d="M8.1,0,0,14.819H1.44L8.1,2.711l6.658,12.108H16.2Z" transform="translate(43.369)" fill="#fff"/>
      <path id="Path_40_00000005257596101130994790000016905802965150887846_" d="M0,9.759H1.44L5.219,2.711,9,9.759h1.44L5.219,0Z" transform="translate(46.249 5.06)" fill="#fff"/>
      <path id="Path_41_00000075128922786360029640000000776943869851870396_" d="M8.358,2.249A4.429,4.429,0,0,0,2.239.622,4.469,4.469,0,0,0,.62,6.767,4.429,4.429,0,0,0,6.738,8.394a3.539,3.539,0,0,0,1.62-1.627l-1.08-.723a3.208,3.208,0,0,1-4.5,1.084A3.237,3.237,0,0,1,1.7,2.61,3.208,3.208,0,0,1,6.2,1.526,3.062,3.062,0,0,1,7.278,2.61Z" transform="translate(86.479 2.992)" fill="#fff"/>
      <path id="Path_42_00000165225346832178956270000008882828727686704807_" d="M13.224,3.521A7.044,7.044,0,0,0,3.506.991,7.107,7.107,0,0,0,.987,10.75,7.044,7.044,0,0,0,10.7,13.28a6.78,6.78,0,0,0,2.519-2.53l-1.08-.723a5.981,5.981,0,0,1-8.1,1.988,6.036,6.036,0,0,1-1.98-8.133,5.981,5.981,0,0,1,8.1-1.988,5.216,5.216,0,0,1,1.98,1.988Z" transform="translate(83.773 0.455)" fill="#fff"/>
      <path id="Path_43_00000129202279742025745630000011233643214348559547_" d="M7.2,1.265V0H0V3.8H7.378V2.53H1.26V1.265Z" transform="translate(74.682 3.072)" fill="#fff"/>
      <path id="Path_44_00000134214311986215629220000010340913060868033172_" d="M7.378,1.265V0H0V3.8H7.2V2.53H1.08V1.265Z" transform="translate(74.502 8.313)" fill="#fff"/>
      <path id="Path_45_00000137108394345868967840000017223508058592066952_" d="M.54,1.085.36.723H.18v.362H0V0H.54A.628.628,0,0,1,.9.181V.362C.9.542.72.542.36.723l.36.362Z" transform="translate(112.832 0.904)" fill="#fff"/>
      <path id="Path_46_00000019663793535659726000000002287409828949353627_" d="M0,.9A.852.852,0,0,1,.9,0h0c.54,0,1.079.362.9.9a.852.852,0,0,1-.9.9A.852.852,0,0,1,0,.9Z" transform="translate(112.292 0.542)" fill="#fff"/>
      <path id="Path_155_00000142166599686175031540000014006140485736088232_" d="M8.1,0,0,14.819H1.44L8.1,2.711l6.658,12.108H16.2Z" fill="#fff"/>
      <path id="Path_156_00000171696094715514729610000018384152583217529255_" d="M0,9.759H1.44L5.219,2.711,9,9.759h1.44L5.219,0Z" transform="translate(2.879 5.06)" fill="#fff"/>
    </g>
  </g>
</svg>
