<svg id="youtube" xmlns="http://www.w3.org/2000/svg" xmlns:xlink="http://www.w3.org/1999/xlink" width="23" height="16" viewBox="0 0 23 16">
  <defs>
    <clipPath id="clip-path">
      <path id="Clip_2" data-name="Clip 2" d="M0,0H23V16H0Z" fill="none"/>
    </clipPath>
  </defs>
  <path id="Clip_2-2" data-name="Clip 2" d="M0,0H23V16H0Z" fill="none"/>
  <g id="Group_3" data-name="Group 3" clip-path="url(#clip-path)">
    <path id="Fill_1" data-name="Fill 1" d="M19.106,16H3.892A3.905,3.905,0,0,1,0,12.09V3.912A3.906,3.906,0,0,1,3.892,0H19.106A3.908,3.908,0,0,1,23,3.912V12.09A3.907,3.907,0,0,1,19.106,16ZM9.023,4.27a.177.177,0,0,0-.178.176v7.112a.178.178,0,0,0,.177.175.179.179,0,0,0,.081-.02L16,8.158a.158.158,0,0,0,.076-.073A.179.179,0,0,0,16,7.844L9.1,4.289A.155.155,0,0,0,9.023,4.27Z" fill="#149b9e"/>
  </g>
</svg>
